<svg xmlns="http://www.w3.org/2000/svg" width="1200" height="260" viewBox="0 0 1200 260" fill="none">
  <defs>
    <linearGradient id="bg-deploy" x1="0" y1="0" x2="1" y2="1">
      <stop offset="0" stop-color="#0b1220"/>
      <stop offset="1" stop-color="#0f172a"/>
    </linearGradient>
  </defs>

  <rect width="1200" height="260" rx="16" fill="url(#bg-deploy)"/>

  <g font-family="Segoe UI, Arial, sans-serif" font-size="14" fill="#e2e8f0">
    <rect x="60" y="90" width="140" height="80" rx="12" fill="#111827" stroke="#1f2937"/>
    <text x="130" y="135" text-anchor="middle">Analyst</text>

    <rect x="240" y="90" width="140" height="80" rx="12" fill="#111827" stroke="#1f2937"/>
    <text x="310" y="135" text-anchor="middle">Nginx</text>

    <rect x="420" y="40" width="160" height="80" rx="12" fill="#111827" stroke="#1f2937"/>
    <text x="500" y="85" text-anchor="middle">Frontend SPA</text>

    <rect x="420" y="140" width="160" height="80" rx="12" fill="#111827" stroke="#1f2937"/>
    <text x="500" y="185" text-anchor="middle">FastAPI</text>

    <rect x="620" y="140" width="160" height="80" rx="12" fill="#111827" stroke="#1f2937"/>
    <text x="700" y="185" text-anchor="middle">Postgres</text>

    <rect x="820" y="140" width="160" height="80" rx="12" fill="#111827" stroke="#1f2937"/>
    <text x="900" y="185" text-anchor="middle">ML Models</text>
  </g>

  <g stroke="#60a5fa" stroke-width="2">
    <path d="M200 130 H240"/>
    <path d="M380 130 H420"/>
    <path d="M500 120 V140"/>
    <path d="M580 180 H620"/>
    <path d="M780 180 H820"/>
  </g>

  <g fill="#60a5fa">
    <circle cx="200" cy="130" r="3"/>
    <circle cx="380" cy="130" r="3"/>
    <circle cx="500" cy="120" r="3"/>
    <circle cx="500" cy="140" r="3"/>
    <circle cx="580" cy="180" r="3"/>
    <circle cx="780" cy="180" r="3"/>
  </g>

  <text x="60" y="30" fill="#94a3b8" font-family="Segoe UI, Arial, sans-serif" font-size="12">
    Containerized deployment topology
  </text>
</svg>
